<mxfile host="app.diagrams.net" modified="2023-09-01T15:59:58.436Z" agent="Mozilla/5.0 (Windows NT 10.0; Win64; x64) AppleWebKit/537.36 (KHTML, like Gecko) Chrome/116.0.0.0 Safari/537.36" version="21.7.2" etag="hLPu4PqG9g0rU6BcL8oT" type="device">
  <diagram id="Bhqdqz-TDbeNDRqG77tI" name="Страница — 1">
    <mxGraphModel dx="2868" dy="2669" grid="1" gridSize="10" guides="1" tooltips="1" connect="1" arrows="1" fold="1" page="1" pageScale="1" pageWidth="827" pageHeight="1169" math="0" shadow="0">
      <root>
        <mxCell id="0" />
        <mxCell id="1" parent="0" />
        <mxCell id="Cz9Yfu0pwixY7uKM86_O-1" value="" style="rounded=1;whiteSpace=wrap;html=1;" vertex="1" parent="1">
          <mxGeometry x="80" y="30" width="674" height="1050" as="geometry" />
        </mxCell>
        <mxCell id="Cz9Yfu0pwixY7uKM86_O-2" value="" style="rounded=1;whiteSpace=wrap;html=1;" vertex="1" parent="1">
          <mxGeometry x="104" y="730" width="620" height="320" as="geometry" />
        </mxCell>
        <mxCell id="Cz9Yfu0pwixY7uKM86_O-3" value="" style="rounded=1;whiteSpace=wrap;html=1;" vertex="1" parent="1">
          <mxGeometry x="104" y="395" width="620" height="320" as="geometry" />
        </mxCell>
        <mxCell id="Cz9Yfu0pwixY7uKM86_O-4" value="" style="rounded=1;whiteSpace=wrap;html=1;" vertex="1" parent="1">
          <mxGeometry x="104" y="60" width="620" height="320" as="geometry" />
        </mxCell>
        <mxCell id="Cz9Yfu0pwixY7uKM86_O-5" value="Presentation" style="text;html=1;strokeColor=none;fillColor=none;align=center;verticalAlign=middle;whiteSpace=wrap;rounded=0;fontSize=17;fontStyle=1" vertex="1" parent="1">
          <mxGeometry x="150" y="1000" width="60" height="30" as="geometry" />
        </mxCell>
        <mxCell id="Cz9Yfu0pwixY7uKM86_O-6" value="Domain&lt;br&gt;" style="text;html=1;strokeColor=none;fillColor=none;align=center;verticalAlign=middle;whiteSpace=wrap;rounded=0;fontSize=17;fontStyle=1" vertex="1" parent="1">
          <mxGeometry x="130" y="670" width="60" height="30" as="geometry" />
        </mxCell>
        <mxCell id="Cz9Yfu0pwixY7uKM86_O-7" value="Data" style="text;html=1;strokeColor=none;fillColor=none;align=center;verticalAlign=middle;whiteSpace=wrap;rounded=0;fontSize=17;fontStyle=1" vertex="1" parent="1">
          <mxGeometry x="130" y="330" width="60" height="30" as="geometry" />
        </mxCell>
        <mxCell id="Cz9Yfu0pwixY7uKM86_O-8" value="&lt;font style=&quot;font-size: 15px;&quot;&gt;&lt;b&gt;Список упражнений&lt;/b&gt;&lt;/font&gt;" style="text;html=1;strokeColor=none;fillColor=none;align=center;verticalAlign=middle;whiteSpace=wrap;rounded=0;" vertex="1" parent="1">
          <mxGeometry x="310" y="20" width="160" height="50" as="geometry" />
        </mxCell>
        <mxCell id="Cz9Yfu0pwixY7uKM86_O-9" value="&lt;font style=&quot;font-size: 14px;&quot;&gt;Fragment&lt;/font&gt;" style="rounded=0;whiteSpace=wrap;html=1;" vertex="1" parent="1">
          <mxGeometry x="600" y="800" width="90" height="220" as="geometry" />
        </mxCell>
        <mxCell id="Cz9Yfu0pwixY7uKM86_O-10" style="edgeStyle=orthogonalEdgeStyle;rounded=0;orthogonalLoop=1;jettySize=auto;html=1;entryX=0;entryY=0.5;entryDx=0;entryDy=0;" edge="1" parent="1" source="Cz9Yfu0pwixY7uKM86_O-11" target="Cz9Yfu0pwixY7uKM86_O-9">
          <mxGeometry relative="1" as="geometry" />
        </mxCell>
        <mxCell id="Cz9Yfu0pwixY7uKM86_O-11" value="ViewModel" style="whiteSpace=wrap;html=1;aspect=fixed;" vertex="1" parent="1">
          <mxGeometry x="360" y="840" width="140" height="140" as="geometry" />
        </mxCell>
        <mxCell id="Cz9Yfu0pwixY7uKM86_O-12" style="edgeStyle=orthogonalEdgeStyle;rounded=0;orthogonalLoop=1;jettySize=auto;html=1;entryX=-0.027;entryY=0.91;entryDx=0;entryDy=0;entryPerimeter=0;" edge="1" parent="1" source="Cz9Yfu0pwixY7uKM86_O-13" target="Cz9Yfu0pwixY7uKM86_O-9">
          <mxGeometry relative="1" as="geometry">
            <Array as="points">
              <mxPoint x="240" y="1000" />
            </Array>
          </mxGeometry>
        </mxCell>
        <mxCell id="Cz9Yfu0pwixY7uKM86_O-13" value="ExerciseAdapter" style="whiteSpace=wrap;html=1;aspect=fixed;" vertex="1" parent="1">
          <mxGeometry x="190" y="860" width="100" height="100" as="geometry" />
        </mxCell>
        <mxCell id="Cz9Yfu0pwixY7uKM86_O-14" value="Exercise" style="rounded=0;whiteSpace=wrap;html=1;" vertex="1" parent="1">
          <mxGeometry x="140" y="430" width="120" height="60" as="geometry" />
        </mxCell>
        <mxCell id="Cz9Yfu0pwixY7uKM86_O-15" style="edgeStyle=orthogonalEdgeStyle;rounded=0;orthogonalLoop=1;jettySize=auto;html=1;entryX=0.5;entryY=0;entryDx=0;entryDy=0;" edge="1" parent="1" source="Cz9Yfu0pwixY7uKM86_O-16" target="Cz9Yfu0pwixY7uKM86_O-11">
          <mxGeometry relative="1" as="geometry">
            <Array as="points">
              <mxPoint x="620" y="680" />
              <mxPoint x="430" y="680" />
            </Array>
          </mxGeometry>
        </mxCell>
        <mxCell id="Cz9Yfu0pwixY7uKM86_O-16" value="GetAllExerciseUseCase" style="rounded=0;whiteSpace=wrap;html=1;" vertex="1" parent="1">
          <mxGeometry x="550" y="430" width="140" height="70" as="geometry" />
        </mxCell>
        <mxCell id="Cz9Yfu0pwixY7uKM86_O-17" style="edgeStyle=orthogonalEdgeStyle;rounded=0;orthogonalLoop=1;jettySize=auto;html=1;entryX=0;entryY=0.5;entryDx=0;entryDy=0;" edge="1" parent="1" source="Cz9Yfu0pwixY7uKM86_O-19" target="Cz9Yfu0pwixY7uKM86_O-16">
          <mxGeometry relative="1" as="geometry" />
        </mxCell>
        <mxCell id="Cz9Yfu0pwixY7uKM86_O-18" style="edgeStyle=orthogonalEdgeStyle;rounded=0;orthogonalLoop=1;jettySize=auto;html=1;entryX=1;entryY=0.5;entryDx=0;entryDy=0;" edge="1" parent="1" source="Cz9Yfu0pwixY7uKM86_O-19" target="Cz9Yfu0pwixY7uKM86_O-26">
          <mxGeometry relative="1" as="geometry" />
        </mxCell>
        <mxCell id="Cz9Yfu0pwixY7uKM86_O-19" value="Repository Interface" style="rounded=0;whiteSpace=wrap;html=1;" vertex="1" parent="1">
          <mxGeometry x="370" y="435" width="120" height="60" as="geometry" />
        </mxCell>
        <mxCell id="Cz9Yfu0pwixY7uKM86_O-20" value="" style="rounded=1;whiteSpace=wrap;html=1;" vertex="1" parent="1">
          <mxGeometry x="931" y="-390" width="620" height="320" as="geometry" />
        </mxCell>
        <mxCell id="Cz9Yfu0pwixY7uKM86_O-21" value="Storage" style="text;html=1;strokeColor=none;fillColor=none;align=center;verticalAlign=middle;whiteSpace=wrap;rounded=0;fontSize=17;fontStyle=1" vertex="1" parent="1">
          <mxGeometry x="960" y="-360" width="60" height="30" as="geometry" />
        </mxCell>
        <mxCell id="Cz9Yfu0pwixY7uKM86_O-22" style="edgeStyle=orthogonalEdgeStyle;rounded=0;orthogonalLoop=1;jettySize=auto;html=1;" edge="1" parent="1" source="Cz9Yfu0pwixY7uKM86_O-23" target="Cz9Yfu0pwixY7uKM86_O-25">
          <mxGeometry relative="1" as="geometry" />
        </mxCell>
        <mxCell id="Cz9Yfu0pwixY7uKM86_O-23" value="ExerciseDatabase" style="rounded=0;whiteSpace=wrap;html=1;" vertex="1" parent="1">
          <mxGeometry x="1040" y="-360" width="180" height="100" as="geometry" />
        </mxCell>
        <mxCell id="Cz9Yfu0pwixY7uKM86_O-24" style="edgeStyle=orthogonalEdgeStyle;rounded=0;orthogonalLoop=1;jettySize=auto;html=1;entryX=0.5;entryY=0;entryDx=0;entryDy=0;" edge="1" parent="1" source="Cz9Yfu0pwixY7uKM86_O-25" target="Cz9Yfu0pwixY7uKM86_O-26">
          <mxGeometry relative="1" as="geometry" />
        </mxCell>
        <mxCell id="Cz9Yfu0pwixY7uKM86_O-25" value="ExerciseDao" style="rounded=0;whiteSpace=wrap;html=1;" vertex="1" parent="1">
          <mxGeometry x="1040" y="-220" width="180" height="100" as="geometry" />
        </mxCell>
        <mxCell id="Cz9Yfu0pwixY7uKM86_O-26" value="Repository Impl" style="rounded=0;whiteSpace=wrap;html=1;" vertex="1" parent="1">
          <mxGeometry x="140" y="100" width="120" height="60" as="geometry" />
        </mxCell>
        <mxCell id="Cz9Yfu0pwixY7uKM86_O-27" value="" style="rounded=1;whiteSpace=wrap;html=1;" vertex="1" parent="1">
          <mxGeometry x="827" y="35" width="674" height="1050" as="geometry" />
        </mxCell>
        <mxCell id="Cz9Yfu0pwixY7uKM86_O-28" value="" style="rounded=1;whiteSpace=wrap;html=1;" vertex="1" parent="1">
          <mxGeometry x="851" y="735" width="620" height="320" as="geometry" />
        </mxCell>
        <mxCell id="Cz9Yfu0pwixY7uKM86_O-29" value="" style="rounded=1;whiteSpace=wrap;html=1;" vertex="1" parent="1">
          <mxGeometry x="851" y="400" width="620" height="320" as="geometry" />
        </mxCell>
        <mxCell id="Cz9Yfu0pwixY7uKM86_O-30" value="" style="rounded=1;whiteSpace=wrap;html=1;" vertex="1" parent="1">
          <mxGeometry x="851" y="65" width="620" height="320" as="geometry" />
        </mxCell>
        <mxCell id="Cz9Yfu0pwixY7uKM86_O-31" value="Presentation" style="text;html=1;strokeColor=none;fillColor=none;align=center;verticalAlign=middle;whiteSpace=wrap;rounded=0;fontSize=17;fontStyle=1" vertex="1" parent="1">
          <mxGeometry x="897" y="1005" width="60" height="30" as="geometry" />
        </mxCell>
        <mxCell id="Cz9Yfu0pwixY7uKM86_O-32" value="Domain&lt;br&gt;" style="text;html=1;strokeColor=none;fillColor=none;align=center;verticalAlign=middle;whiteSpace=wrap;rounded=0;fontSize=17;fontStyle=1" vertex="1" parent="1">
          <mxGeometry x="877" y="675" width="60" height="30" as="geometry" />
        </mxCell>
        <mxCell id="Cz9Yfu0pwixY7uKM86_O-33" value="Data" style="text;html=1;strokeColor=none;fillColor=none;align=center;verticalAlign=middle;whiteSpace=wrap;rounded=0;fontSize=17;fontStyle=1" vertex="1" parent="1">
          <mxGeometry x="877" y="335" width="60" height="30" as="geometry" />
        </mxCell>
        <mxCell id="Cz9Yfu0pwixY7uKM86_O-34" value="&lt;span style=&quot;font-size: 15px;&quot;&gt;&lt;b&gt;Добавление упражнения&lt;/b&gt;&lt;/span&gt;" style="text;html=1;strokeColor=none;fillColor=none;align=center;verticalAlign=middle;whiteSpace=wrap;rounded=0;" vertex="1" parent="1">
          <mxGeometry x="1020" y="20" width="243" height="50" as="geometry" />
        </mxCell>
        <mxCell id="Cz9Yfu0pwixY7uKM86_O-35" style="edgeStyle=orthogonalEdgeStyle;rounded=0;orthogonalLoop=1;jettySize=auto;html=1;entryX=1;entryY=0.5;entryDx=0;entryDy=0;" edge="1" parent="1" source="Cz9Yfu0pwixY7uKM86_O-36" target="Cz9Yfu0pwixY7uKM86_O-37">
          <mxGeometry relative="1" as="geometry" />
        </mxCell>
        <mxCell id="Cz9Yfu0pwixY7uKM86_O-36" value="&lt;font style=&quot;font-size: 14px;&quot;&gt;Fragment&lt;/font&gt;" style="rounded=0;whiteSpace=wrap;html=1;" vertex="1" parent="1">
          <mxGeometry x="1347" y="805" width="90" height="220" as="geometry" />
        </mxCell>
        <mxCell id="Cz9Yfu0pwixY7uKM86_O-37" value="ViewModel" style="whiteSpace=wrap;html=1;aspect=fixed;" vertex="1" parent="1">
          <mxGeometry x="1107" y="845" width="140" height="140" as="geometry" />
        </mxCell>
        <mxCell id="Cz9Yfu0pwixY7uKM86_O-38" value="Exercise" style="rounded=0;whiteSpace=wrap;html=1;" vertex="1" parent="1">
          <mxGeometry x="887" y="435" width="120" height="60" as="geometry" />
        </mxCell>
        <mxCell id="Cz9Yfu0pwixY7uKM86_O-39" style="edgeStyle=orthogonalEdgeStyle;rounded=0;orthogonalLoop=1;jettySize=auto;html=1;entryX=0.5;entryY=0;entryDx=0;entryDy=0;" edge="1" parent="1" source="Cz9Yfu0pwixY7uKM86_O-40" target="Cz9Yfu0pwixY7uKM86_O-37">
          <mxGeometry relative="1" as="geometry">
            <Array as="points">
              <mxPoint x="1367" y="685" />
              <mxPoint x="1177" y="685" />
            </Array>
          </mxGeometry>
        </mxCell>
        <mxCell id="Cz9Yfu0pwixY7uKM86_O-40" value="AddExerciseUseCase" style="rounded=0;whiteSpace=wrap;html=1;" vertex="1" parent="1">
          <mxGeometry x="1297" y="435" width="140" height="70" as="geometry" />
        </mxCell>
        <mxCell id="Cz9Yfu0pwixY7uKM86_O-41" style="edgeStyle=orthogonalEdgeStyle;rounded=0;orthogonalLoop=1;jettySize=auto;html=1;entryX=0;entryY=0.5;entryDx=0;entryDy=0;" edge="1" parent="1" source="Cz9Yfu0pwixY7uKM86_O-43" target="Cz9Yfu0pwixY7uKM86_O-40">
          <mxGeometry relative="1" as="geometry" />
        </mxCell>
        <mxCell id="Cz9Yfu0pwixY7uKM86_O-42" style="edgeStyle=orthogonalEdgeStyle;rounded=0;orthogonalLoop=1;jettySize=auto;html=1;entryX=1;entryY=0.5;entryDx=0;entryDy=0;" edge="1" parent="1" source="Cz9Yfu0pwixY7uKM86_O-43" target="Cz9Yfu0pwixY7uKM86_O-44">
          <mxGeometry relative="1" as="geometry" />
        </mxCell>
        <mxCell id="Cz9Yfu0pwixY7uKM86_O-43" value="Repository Interface" style="rounded=0;whiteSpace=wrap;html=1;" vertex="1" parent="1">
          <mxGeometry x="1117" y="440" width="120" height="60" as="geometry" />
        </mxCell>
        <mxCell id="Cz9Yfu0pwixY7uKM86_O-44" value="Repository Impl" style="rounded=0;whiteSpace=wrap;html=1;" vertex="1" parent="1">
          <mxGeometry x="887" y="105" width="120" height="60" as="geometry" />
        </mxCell>
        <mxCell id="Cz9Yfu0pwixY7uKM86_O-45" style="edgeStyle=orthogonalEdgeStyle;rounded=0;orthogonalLoop=1;jettySize=auto;html=1;entryX=0.5;entryY=0;entryDx=0;entryDy=0;" edge="1" parent="1" source="Cz9Yfu0pwixY7uKM86_O-25" target="Cz9Yfu0pwixY7uKM86_O-44">
          <mxGeometry relative="1" as="geometry" />
        </mxCell>
        <mxCell id="Cz9Yfu0pwixY7uKM86_O-46" value="" style="rounded=1;whiteSpace=wrap;html=1;" vertex="1" parent="1">
          <mxGeometry x="1590" y="30" width="674" height="1050" as="geometry" />
        </mxCell>
        <mxCell id="Cz9Yfu0pwixY7uKM86_O-47" value="" style="rounded=1;whiteSpace=wrap;html=1;" vertex="1" parent="1">
          <mxGeometry x="1614" y="730" width="620" height="320" as="geometry" />
        </mxCell>
        <mxCell id="Cz9Yfu0pwixY7uKM86_O-48" value="" style="rounded=1;whiteSpace=wrap;html=1;" vertex="1" parent="1">
          <mxGeometry x="1614" y="395" width="620" height="320" as="geometry" />
        </mxCell>
        <mxCell id="Cz9Yfu0pwixY7uKM86_O-49" value="" style="rounded=1;whiteSpace=wrap;html=1;" vertex="1" parent="1">
          <mxGeometry x="1614" y="60" width="620" height="320" as="geometry" />
        </mxCell>
        <mxCell id="Cz9Yfu0pwixY7uKM86_O-50" value="Presentation" style="text;html=1;strokeColor=none;fillColor=none;align=center;verticalAlign=middle;whiteSpace=wrap;rounded=0;fontSize=17;fontStyle=1" vertex="1" parent="1">
          <mxGeometry x="1660" y="1000" width="60" height="30" as="geometry" />
        </mxCell>
        <mxCell id="Cz9Yfu0pwixY7uKM86_O-51" value="Domain&lt;br&gt;" style="text;html=1;strokeColor=none;fillColor=none;align=center;verticalAlign=middle;whiteSpace=wrap;rounded=0;fontSize=17;fontStyle=1" vertex="1" parent="1">
          <mxGeometry x="1640" y="670" width="60" height="30" as="geometry" />
        </mxCell>
        <mxCell id="Cz9Yfu0pwixY7uKM86_O-52" value="Data" style="text;html=1;strokeColor=none;fillColor=none;align=center;verticalAlign=middle;whiteSpace=wrap;rounded=0;fontSize=17;fontStyle=1" vertex="1" parent="1">
          <mxGeometry x="1640" y="330" width="60" height="30" as="geometry" />
        </mxCell>
        <mxCell id="Cz9Yfu0pwixY7uKM86_O-53" value="&lt;span style=&quot;font-size: 15px;&quot;&gt;&lt;b&gt;Просмотр упражнения&lt;/b&gt;&lt;/span&gt;" style="text;html=1;strokeColor=none;fillColor=none;align=center;verticalAlign=middle;whiteSpace=wrap;rounded=0;" vertex="1" parent="1">
          <mxGeometry x="1767" y="15" width="243" height="50" as="geometry" />
        </mxCell>
        <mxCell id="Cz9Yfu0pwixY7uKM86_O-54" style="edgeStyle=orthogonalEdgeStyle;rounded=0;orthogonalLoop=1;jettySize=auto;html=1;entryX=1;entryY=0.5;entryDx=0;entryDy=0;" edge="1" parent="1" source="Cz9Yfu0pwixY7uKM86_O-55" target="Cz9Yfu0pwixY7uKM86_O-56">
          <mxGeometry relative="1" as="geometry" />
        </mxCell>
        <mxCell id="Cz9Yfu0pwixY7uKM86_O-55" value="&lt;font style=&quot;font-size: 14px;&quot;&gt;Fragment&lt;/font&gt;" style="rounded=0;whiteSpace=wrap;html=1;" vertex="1" parent="1">
          <mxGeometry x="2110" y="800" width="90" height="220" as="geometry" />
        </mxCell>
        <mxCell id="Cz9Yfu0pwixY7uKM86_O-56" value="ViewModel" style="whiteSpace=wrap;html=1;aspect=fixed;" vertex="1" parent="1">
          <mxGeometry x="1870" y="840" width="140" height="140" as="geometry" />
        </mxCell>
        <mxCell id="Cz9Yfu0pwixY7uKM86_O-57" value="Exercise" style="rounded=0;whiteSpace=wrap;html=1;" vertex="1" parent="1">
          <mxGeometry x="1650" y="430" width="120" height="60" as="geometry" />
        </mxCell>
        <mxCell id="Cz9Yfu0pwixY7uKM86_O-58" style="edgeStyle=orthogonalEdgeStyle;rounded=0;orthogonalLoop=1;jettySize=auto;html=1;entryX=0.5;entryY=0;entryDx=0;entryDy=0;" edge="1" parent="1" source="Cz9Yfu0pwixY7uKM86_O-59" target="Cz9Yfu0pwixY7uKM86_O-56">
          <mxGeometry relative="1" as="geometry">
            <Array as="points">
              <mxPoint x="2130" y="680" />
              <mxPoint x="1940" y="680" />
            </Array>
          </mxGeometry>
        </mxCell>
        <mxCell id="Cz9Yfu0pwixY7uKM86_O-59" value="UpdateExerciseUseCase" style="rounded=0;whiteSpace=wrap;html=1;" vertex="1" parent="1">
          <mxGeometry x="2060" y="430" width="140" height="70" as="geometry" />
        </mxCell>
        <mxCell id="Cz9Yfu0pwixY7uKM86_O-60" style="edgeStyle=orthogonalEdgeStyle;rounded=0;orthogonalLoop=1;jettySize=auto;html=1;entryX=0;entryY=0.5;entryDx=0;entryDy=0;" edge="1" parent="1" source="Cz9Yfu0pwixY7uKM86_O-63" target="Cz9Yfu0pwixY7uKM86_O-59">
          <mxGeometry relative="1" as="geometry" />
        </mxCell>
        <mxCell id="Cz9Yfu0pwixY7uKM86_O-61" style="edgeStyle=orthogonalEdgeStyle;rounded=0;orthogonalLoop=1;jettySize=auto;html=1;entryX=1;entryY=0.5;entryDx=0;entryDy=0;" edge="1" parent="1" source="Cz9Yfu0pwixY7uKM86_O-63" target="Cz9Yfu0pwixY7uKM86_O-64">
          <mxGeometry relative="1" as="geometry" />
        </mxCell>
        <mxCell id="Cz9Yfu0pwixY7uKM86_O-62" value="" style="edgeStyle=orthogonalEdgeStyle;rounded=0;orthogonalLoop=1;jettySize=auto;html=1;" edge="1" parent="1" source="Cz9Yfu0pwixY7uKM86_O-63" target="Cz9Yfu0pwixY7uKM86_O-66">
          <mxGeometry relative="1" as="geometry" />
        </mxCell>
        <mxCell id="Cz9Yfu0pwixY7uKM86_O-63" value="Repository Interface" style="rounded=0;whiteSpace=wrap;html=1;" vertex="1" parent="1">
          <mxGeometry x="1880" y="435" width="120" height="60" as="geometry" />
        </mxCell>
        <mxCell id="Cz9Yfu0pwixY7uKM86_O-64" value="Repository Impl" style="rounded=0;whiteSpace=wrap;html=1;" vertex="1" parent="1">
          <mxGeometry x="1650" y="100" width="120" height="60" as="geometry" />
        </mxCell>
        <mxCell id="Cz9Yfu0pwixY7uKM86_O-65" style="edgeStyle=orthogonalEdgeStyle;rounded=0;orthogonalLoop=1;jettySize=auto;html=1;entryX=0.5;entryY=0;entryDx=0;entryDy=0;" edge="1" parent="1" source="Cz9Yfu0pwixY7uKM86_O-66" target="Cz9Yfu0pwixY7uKM86_O-56">
          <mxGeometry relative="1" as="geometry" />
        </mxCell>
        <mxCell id="Cz9Yfu0pwixY7uKM86_O-66" value="RemoveExerciseUseCase" style="rounded=0;whiteSpace=wrap;html=1;" vertex="1" parent="1">
          <mxGeometry x="1865" y="527.5" width="150" height="75" as="geometry" />
        </mxCell>
        <mxCell id="Cz9Yfu0pwixY7uKM86_O-67" style="edgeStyle=orthogonalEdgeStyle;rounded=0;orthogonalLoop=1;jettySize=auto;html=1;entryX=0.5;entryY=0;entryDx=0;entryDy=0;" edge="1" parent="1" source="Cz9Yfu0pwixY7uKM86_O-25" target="Cz9Yfu0pwixY7uKM86_O-64">
          <mxGeometry relative="1" as="geometry" />
        </mxCell>
        <mxCell id="Cz9Yfu0pwixY7uKM86_O-68" value="" style="rounded=1;whiteSpace=wrap;html=1;" vertex="1" parent="1">
          <mxGeometry x="2380" y="37.5" width="674" height="1050" as="geometry" />
        </mxCell>
        <mxCell id="Cz9Yfu0pwixY7uKM86_O-69" value="" style="rounded=1;whiteSpace=wrap;html=1;" vertex="1" parent="1">
          <mxGeometry x="2404" y="737.5" width="620" height="320" as="geometry" />
        </mxCell>
        <mxCell id="Cz9Yfu0pwixY7uKM86_O-70" value="" style="rounded=1;whiteSpace=wrap;html=1;" vertex="1" parent="1">
          <mxGeometry x="2404" y="402.5" width="620" height="320" as="geometry" />
        </mxCell>
        <mxCell id="Cz9Yfu0pwixY7uKM86_O-71" value="" style="rounded=1;whiteSpace=wrap;html=1;" vertex="1" parent="1">
          <mxGeometry x="2404" y="67.5" width="620" height="320" as="geometry" />
        </mxCell>
        <mxCell id="Cz9Yfu0pwixY7uKM86_O-72" value="Presentation" style="text;html=1;strokeColor=none;fillColor=none;align=center;verticalAlign=middle;whiteSpace=wrap;rounded=0;fontSize=17;fontStyle=1" vertex="1" parent="1">
          <mxGeometry x="2450" y="1007.5" width="60" height="30" as="geometry" />
        </mxCell>
        <mxCell id="Cz9Yfu0pwixY7uKM86_O-73" value="Domain&lt;br&gt;" style="text;html=1;strokeColor=none;fillColor=none;align=center;verticalAlign=middle;whiteSpace=wrap;rounded=0;fontSize=17;fontStyle=1" vertex="1" parent="1">
          <mxGeometry x="2430" y="677.5" width="60" height="30" as="geometry" />
        </mxCell>
        <mxCell id="Cz9Yfu0pwixY7uKM86_O-74" value="Data" style="text;html=1;strokeColor=none;fillColor=none;align=center;verticalAlign=middle;whiteSpace=wrap;rounded=0;fontSize=17;fontStyle=1" vertex="1" parent="1">
          <mxGeometry x="2430" y="337.5" width="60" height="30" as="geometry" />
        </mxCell>
        <mxCell id="Cz9Yfu0pwixY7uKM86_O-75" value="&lt;span style=&quot;font-size: 15px;&quot;&gt;&lt;b&gt;Страница настроек&lt;/b&gt;&lt;/span&gt;" style="text;html=1;strokeColor=none;fillColor=none;align=center;verticalAlign=middle;whiteSpace=wrap;rounded=0;" vertex="1" parent="1">
          <mxGeometry x="2557" y="22.5" width="243" height="50" as="geometry" />
        </mxCell>
        <mxCell id="Cz9Yfu0pwixY7uKM86_O-76" style="edgeStyle=orthogonalEdgeStyle;rounded=0;orthogonalLoop=1;jettySize=auto;html=1;entryX=1;entryY=0.5;entryDx=0;entryDy=0;" edge="1" parent="1" source="Cz9Yfu0pwixY7uKM86_O-77" target="Cz9Yfu0pwixY7uKM86_O-78">
          <mxGeometry relative="1" as="geometry" />
        </mxCell>
        <mxCell id="Cz9Yfu0pwixY7uKM86_O-77" value="&lt;font style=&quot;font-size: 14px;&quot;&gt;Fragment&lt;/font&gt;" style="rounded=0;whiteSpace=wrap;html=1;" vertex="1" parent="1">
          <mxGeometry x="2900" y="807.5" width="90" height="220" as="geometry" />
        </mxCell>
        <mxCell id="Cz9Yfu0pwixY7uKM86_O-78" value="ViewModel" style="whiteSpace=wrap;html=1;aspect=fixed;" vertex="1" parent="1">
          <mxGeometry x="2660" y="847.5" width="140" height="140" as="geometry" />
        </mxCell>
        <mxCell id="Cz9Yfu0pwixY7uKM86_O-79" style="edgeStyle=orthogonalEdgeStyle;rounded=0;orthogonalLoop=1;jettySize=auto;html=1;entryX=0.5;entryY=0;entryDx=0;entryDy=0;" edge="1" parent="1" source="Cz9Yfu0pwixY7uKM86_O-80" target="Cz9Yfu0pwixY7uKM86_O-78">
          <mxGeometry relative="1" as="geometry">
            <Array as="points">
              <mxPoint x="2920" y="687.5" />
              <mxPoint x="2730" y="687.5" />
            </Array>
          </mxGeometry>
        </mxCell>
        <mxCell id="Cz9Yfu0pwixY7uKM86_O-80" value="UpdateThemeUseCase" style="rounded=0;whiteSpace=wrap;html=1;" vertex="1" parent="1">
          <mxGeometry x="2850" y="437.5" width="140" height="70" as="geometry" />
        </mxCell>
        <mxCell id="Cz9Yfu0pwixY7uKM86_O-81" style="edgeStyle=orthogonalEdgeStyle;rounded=0;orthogonalLoop=1;jettySize=auto;html=1;entryX=0.5;entryY=0;entryDx=0;entryDy=0;" edge="1" parent="1" source="Cz9Yfu0pwixY7uKM86_O-82" target="Cz9Yfu0pwixY7uKM86_O-78">
          <mxGeometry relative="1" as="geometry" />
        </mxCell>
        <mxCell id="Cz9Yfu0pwixY7uKM86_O-82" value="WeightTransferUseCase" style="rounded=0;whiteSpace=wrap;html=1;" vertex="1" parent="1">
          <mxGeometry x="2660" y="532.5" width="140" height="70" as="geometry" />
        </mxCell>
        <mxCell id="Cz9Yfu0pwixY7uKM86_O-83" style="edgeStyle=orthogonalEdgeStyle;rounded=0;orthogonalLoop=1;jettySize=auto;html=1;entryX=0.5;entryY=0;entryDx=0;entryDy=0;" edge="1" parent="1" source="Cz9Yfu0pwixY7uKM86_O-85" target="Cz9Yfu0pwixY7uKM86_O-80">
          <mxGeometry relative="1" as="geometry">
            <Array as="points">
              <mxPoint x="2560" y="-310" />
              <mxPoint x="2560" y="170" />
              <mxPoint x="2920" y="170" />
            </Array>
          </mxGeometry>
        </mxCell>
        <mxCell id="Cz9Yfu0pwixY7uKM86_O-84" style="edgeStyle=orthogonalEdgeStyle;rounded=0;orthogonalLoop=1;jettySize=auto;html=1;entryX=0.5;entryY=0;entryDx=0;entryDy=0;" edge="1" parent="1" source="Cz9Yfu0pwixY7uKM86_O-85" target="Cz9Yfu0pwixY7uKM86_O-82">
          <mxGeometry relative="1" as="geometry">
            <Array as="points">
              <mxPoint x="2560" y="-310" />
              <mxPoint x="2560" y="170" />
              <mxPoint x="2730" y="170" />
            </Array>
          </mxGeometry>
        </mxCell>
        <mxCell id="Cz9Yfu0pwixY7uKM86_O-85" value="Proto DataStore" style="rounded=0;whiteSpace=wrap;html=1;" vertex="1" parent="1">
          <mxGeometry x="1277" y="-360" width="180" height="100" as="geometry" />
        </mxCell>
        <mxCell id="Cz9Yfu0pwixY7uKM86_O-86" style="edgeStyle=orthogonalEdgeStyle;rounded=0;orthogonalLoop=1;jettySize=auto;html=1;entryX=0.5;entryY=0;entryDx=0;entryDy=0;" edge="1" parent="1" source="Cz9Yfu0pwixY7uKM86_O-87" target="Cz9Yfu0pwixY7uKM86_O-13">
          <mxGeometry relative="1" as="geometry" />
        </mxCell>
        <mxCell id="Cz9Yfu0pwixY7uKM86_O-87" value="ItemDecorator" style="rounded=0;whiteSpace=wrap;html=1;" vertex="1" parent="1">
          <mxGeometry x="180" y="760" width="120" height="60" as="geometry" />
        </mxCell>
      </root>
    </mxGraphModel>
  </diagram>
</mxfile>
